<svg width="55" height="40" viewBox="0 0 55 40" fill="none" xmlns="http://www.w3.org/2000/svg">
<rect width="55" height="40" rx="20" fill="#80C783"/>
<path d="M16.3256 15.88L15.6456 16.34C15.799 16.6467 15.9956 16.9367 16.2356 17.21C16.4823 17.4767 16.7656 17.6933 17.0856 17.86C17.4123 18.02 17.7656 18.1 18.1456 18.1C18.4256 18.1 18.6923 18.0533 18.9456 17.96C19.2056 17.8667 19.4356 17.7333 19.6356 17.56C19.8423 17.3867 20.0023 17.1767 20.1156 16.93C20.2356 16.6833 20.2956 16.4067 20.2956 16.1C20.2956 15.78 20.239 15.5067 20.1256 15.28C20.0123 15.0467 19.8656 14.85 19.6856 14.69C19.5123 14.5233 19.3223 14.3867 19.1156 14.28C18.909 14.1733 18.7123 14.0867 18.5256 14.02C18.119 13.88 17.7956 13.74 17.5556 13.6C17.3223 13.4533 17.1556 13.3 17.0556 13.14C16.9556 12.9733 16.9056 12.7933 16.9056 12.6C16.9056 12.3733 16.9923 12.17 17.1656 11.99C17.339 11.8033 17.6156 11.71 17.9956 11.71C18.269 11.71 18.499 11.7633 18.6856 11.87C18.879 11.9767 19.0423 12.1133 19.1756 12.28C19.309 12.4467 19.419 12.6167 19.5056 12.79L20.2356 12.37C20.1223 12.1233 19.9656 11.89 19.7656 11.67C19.5656 11.4433 19.3223 11.26 19.0356 11.12C18.7556 10.9733 18.4256 10.9 18.0456 10.9C17.6523 10.9 17.3023 10.98 16.9956 11.14C16.689 11.2933 16.449 11.5067 16.2756 11.78C16.1023 12.0533 16.0156 12.3633 16.0156 12.71C16.0156 13.03 16.0756 13.3 16.1956 13.52C16.3223 13.74 16.4823 13.9267 16.6756 14.08C16.869 14.2267 17.0723 14.35 17.2856 14.45C17.499 14.5433 17.6923 14.62 17.8656 14.68C18.1323 14.7733 18.3823 14.88 18.6156 15C18.8556 15.1133 19.049 15.2633 19.1956 15.45C19.3423 15.6367 19.4156 15.8867 19.4156 16.2C19.4156 16.52 19.3023 16.7833 19.0756 16.99C18.849 17.1967 18.549 17.3 18.1756 17.3C17.8956 17.3 17.6456 17.24 17.4256 17.12C17.2056 17 17.0056 16.8333 16.8256 16.62C16.6523 16.4067 16.4856 16.16 16.3256 15.88ZM20.7941 13.4V14.15H23.0941V13.4H20.7941ZM21.5441 11.8V18H22.3441V11.8H21.5441ZM24.2565 16.58C24.2565 16.4133 24.2965 16.27 24.3765 16.15C24.4565 16.03 24.5765 15.9367 24.7365 15.87C24.9032 15.8033 25.1165 15.77 25.3765 15.77C25.6565 15.77 25.9198 15.8067 26.1665 15.88C26.4132 15.9467 26.6532 16.06 26.8865 16.22V15.75C26.8398 15.69 26.7498 15.6133 26.6165 15.52C26.4832 15.42 26.3032 15.3333 26.0765 15.26C25.8565 15.18 25.5798 15.14 25.2465 15.14C24.6798 15.14 24.2365 15.2767 23.9165 15.55C23.6032 15.8167 23.4465 16.1733 23.4465 16.62C23.4465 16.9333 23.5198 17.2 23.6665 17.42C23.8132 17.64 24.0065 17.81 24.2465 17.93C24.4932 18.0433 24.7565 18.1 25.0365 18.1C25.2898 18.1 25.5432 18.0533 25.7965 17.96C26.0565 17.8667 26.2732 17.7233 26.4465 17.53C26.6265 17.3367 26.7165 17.0933 26.7165 16.8L26.5565 16.2C26.5565 16.44 26.4965 16.6533 26.3765 16.84C26.2632 17.02 26.1065 17.16 25.9065 17.26C25.7132 17.36 25.4932 17.41 25.2465 17.41C25.0532 17.41 24.8798 17.38 24.7265 17.32C24.5798 17.2533 24.4632 17.1567 24.3765 17.03C24.2965 16.9033 24.2565 16.7533 24.2565 16.58ZM24.1365 14.46C24.2098 14.4067 24.3098 14.3433 24.4365 14.27C24.5632 14.1967 24.7165 14.1333 24.8965 14.08C25.0832 14.0267 25.2898 14 25.5165 14C25.6565 14 25.7898 14.0133 25.9165 14.04C26.0432 14.0667 26.1532 14.11 26.2465 14.17C26.3465 14.23 26.4232 14.3133 26.4765 14.42C26.5298 14.52 26.5565 14.65 26.5565 14.81V18H27.3565V14.7C27.3565 14.4 27.2798 14.1467 27.1265 13.94C26.9798 13.7333 26.7698 13.5767 26.4965 13.47C26.2298 13.3567 25.9165 13.3 25.5565 13.3C25.1298 13.3 24.7632 13.3633 24.4565 13.49C24.1565 13.6167 23.9198 13.7433 23.7465 13.87L24.1365 14.46ZM28.0109 13.4V14.15H30.3109V13.4H28.0109ZM28.7609 11.8V18H29.5609V11.8H28.7609ZM31.1133 11.5C31.1133 11.6467 31.1666 11.7767 31.2733 11.89C31.3866 11.9967 31.5166 12.05 31.6633 12.05C31.8166 12.05 31.9466 11.9967 32.0533 11.89C32.1599 11.7767 32.2133 11.6467 32.2133 11.5C32.2133 11.3467 32.1599 11.2167 32.0533 11.11C31.9466 11.0033 31.8166 10.95 31.6633 10.95C31.5166 10.95 31.3866 11.0033 31.2733 11.11C31.1666 11.2167 31.1133 11.3467 31.1133 11.5ZM31.2633 13.4V18H32.0633V13.4H31.2633ZM34.0709 15.7C34.0709 15.38 34.1376 15.0967 34.2709 14.85C34.4109 14.5967 34.5976 14.4 34.8309 14.26C35.0709 14.12 35.3409 14.05 35.6409 14.05C35.8876 14.05 36.1176 14.09 36.3309 14.17C36.5509 14.2433 36.7409 14.3433 36.9009 14.47C37.0609 14.5967 37.1743 14.7367 37.2409 14.89V13.89C37.0809 13.7033 36.8509 13.56 36.5509 13.46C36.2576 13.3533 35.9543 13.3 35.6409 13.3C35.1943 13.3 34.7909 13.4033 34.4309 13.61C34.0709 13.8167 33.7843 14.1 33.5709 14.46C33.3643 14.82 33.2609 15.2333 33.2609 15.7C33.2609 16.16 33.3643 16.5733 33.5709 16.94C33.7843 17.3 34.0709 17.5833 34.4309 17.79C34.7909 17.9967 35.1943 18.1 35.6409 18.1C35.9543 18.1 36.2576 18.05 36.5509 17.95C36.8509 17.8433 37.0809 17.6967 37.2409 17.51V16.51C37.1743 16.6567 37.0609 16.7967 36.9009 16.93C36.7409 17.0567 36.5509 17.16 36.3309 17.24C36.1176 17.3133 35.8876 17.35 35.6409 17.35C35.3409 17.35 35.0709 17.28 34.8309 17.14C34.5976 16.9933 34.4109 16.7967 34.2709 16.55C34.1376 16.3033 34.0709 16.02 34.0709 15.7ZM19.2163 29.88L18.5363 30.34C18.6896 30.6467 18.8863 30.9367 19.1263 31.21C19.3729 31.4767 19.6563 31.6933 19.9763 31.86C20.3029 32.02 20.6563 32.1 21.0363 32.1C21.3163 32.1 21.5829 32.0533 21.8363 31.96C22.0963 31.8667 22.3263 31.7333 22.5263 31.56C22.7329 31.3867 22.8929 31.1767 23.0063 30.93C23.1263 30.6833 23.1863 30.4067 23.1863 30.1C23.1863 29.78 23.1296 29.5067 23.0163 29.28C22.9029 29.0467 22.7563 28.85 22.5763 28.69C22.4029 28.5233 22.2129 28.3867 22.0063 28.28C21.7996 28.1733 21.6029 28.0867 21.4163 28.02C21.0096 27.88 20.6863 27.74 20.4463 27.6C20.2129 27.4533 20.0463 27.3 19.9463 27.14C19.8463 26.9733 19.7963 26.7933 19.7963 26.6C19.7963 26.3733 19.8829 26.17 20.0563 25.99C20.2296 25.8033 20.5063 25.71 20.8863 25.71C21.1596 25.71 21.3896 25.7633 21.5763 25.87C21.7696 25.9767 21.9329 26.1133 22.0663 26.28C22.1996 26.4467 22.3096 26.6167 22.3963 26.79L23.1263 26.37C23.0129 26.1233 22.8563 25.89 22.6563 25.67C22.4563 25.4433 22.2129 25.26 21.9263 25.12C21.6463 24.9733 21.3163 24.9 20.9363 24.9C20.5429 24.9 20.1929 24.98 19.8863 25.14C19.5796 25.2933 19.3396 25.5067 19.1663 25.78C18.9929 26.0533 18.9063 26.3633 18.9063 26.71C18.9063 27.03 18.9663 27.3 19.0863 27.52C19.2129 27.74 19.3729 27.9267 19.5663 28.08C19.7596 28.2267 19.9629 28.35 20.1763 28.45C20.3896 28.5433 20.5829 28.62 20.7563 28.68C21.0229 28.7733 21.2729 28.88 21.5063 29C21.7463 29.1133 21.9396 29.2633 22.0863 29.45C22.2329 29.6367 22.3063 29.8867 22.3063 30.2C22.3063 30.52 22.1929 30.7833 21.9663 30.99C21.7396 31.1967 21.4396 31.3 21.0663 31.3C20.7863 31.3 20.5363 31.24 20.3163 31.12C20.0963 31 19.8963 30.8333 19.7163 30.62C19.5429 30.4067 19.3763 30.16 19.2163 29.88ZM26.9348 30.42L24.6348 25H23.6848L26.9348 32.35L30.1848 25H29.2348L26.9348 30.42ZM34.1398 29.25H36.4698C36.4098 29.5233 36.3132 29.78 36.1798 30.02C36.0532 30.26 35.8898 30.4733 35.6898 30.66C35.4898 30.8467 35.2498 30.9933 34.9698 31.1C34.6965 31.2 34.3865 31.25 34.0398 31.25C33.5465 31.25 33.0998 31.1333 32.6998 30.9C32.2998 30.6667 31.9798 30.3433 31.7398 29.93C31.5065 29.5167 31.3898 29.04 31.3898 28.5C31.3898 27.9533 31.5065 27.4767 31.7398 27.07C31.9798 26.6567 32.2998 26.3333 32.6998 26.1C33.0998 25.8667 33.5465 25.75 34.0398 25.75C34.5732 25.75 35.0365 25.8567 35.4298 26.07C35.8232 26.2767 36.1298 26.5667 36.3498 26.94L36.9498 26.39C36.7498 26.0633 36.5032 25.79 36.2098 25.57C35.9232 25.35 35.5965 25.1833 35.2298 25.07C34.8698 24.9567 34.4732 24.9 34.0398 24.9C33.5332 24.9 33.0632 24.99 32.6298 25.17C32.1965 25.3433 31.8198 25.5933 31.4998 25.92C31.1798 26.24 30.9298 26.62 30.7498 27.06C30.5765 27.5 30.4898 27.98 30.4898 28.5C30.4898 29.02 30.5765 29.5 30.7498 29.94C30.9298 30.38 31.1798 30.7633 31.4998 31.09C31.8198 31.41 32.1965 31.66 32.6298 31.84C33.0632 32.0133 33.5332 32.1 34.0398 32.1C34.5732 32.1 35.0465 32.0033 35.4598 31.81C35.8798 31.61 36.2332 31.34 36.5198 31C36.8065 30.66 37.0232 30.2733 37.1698 29.84C37.3165 29.4 37.3898 28.9367 37.3898 28.45H34.1398V29.25Z" fill="#FFFEFE"/>
</svg>
