<svg width="50" height="50" viewBox="0 0 50 50" fill="none" xmlns="http://www.w3.org/2000/svg">
<circle cx="25" cy="25" r="25" fill="url(#paint0_linear_70_3)"/>
<path d="M15.3379 25.668L14.5899 26.174C14.7585 26.5113 14.9749 26.8303 15.2389 27.131C15.5102 27.4243 15.8219 27.6627 16.1739 27.846C16.5332 28.022 16.9219 28.11 17.3399 28.11C17.6479 28.11 17.9412 28.0587 18.2199 27.956C18.5059 27.8533 18.7589 27.7067 18.9789 27.516C19.2062 27.3253 19.3822 27.0943 19.5069 26.823C19.6389 26.5517 19.7049 26.2473 19.7049 25.91C19.7049 25.558 19.6425 25.2573 19.5179 25.008C19.3932 24.7513 19.2319 24.535 19.0339 24.359C18.8432 24.1757 18.6342 24.0253 18.4069 23.908C18.1795 23.7907 17.9632 23.6953 17.7579 23.622C17.3105 23.468 16.9549 23.314 16.6909 23.16C16.4342 22.9987 16.2509 22.83 16.1409 22.654C16.0309 22.4707 15.9759 22.2727 15.9759 22.06C15.9759 21.8107 16.0712 21.587 16.2619 21.389C16.4525 21.1837 16.7569 21.081 17.1749 21.081C17.4755 21.081 17.7285 21.1397 17.9339 21.257C18.1465 21.3743 18.3262 21.5247 18.4729 21.708C18.6195 21.8913 18.7405 22.0783 18.8359 22.269L19.6389 21.807C19.5142 21.5357 19.3419 21.279 19.1219 21.037C18.9019 20.7877 18.6342 20.586 18.3189 20.432C18.0109 20.2707 17.6479 20.19 17.2299 20.19C16.7972 20.19 16.4122 20.278 16.0749 20.454C15.7375 20.6227 15.4735 20.8573 15.2829 21.158C15.0922 21.4587 14.9969 21.7997 14.9969 22.181C14.9969 22.533 15.0629 22.83 15.1949 23.072C15.3342 23.314 15.5102 23.5193 15.7229 23.688C15.9355 23.8493 16.1592 23.985 16.3939 24.095C16.6285 24.1977 16.8412 24.282 17.0319 24.348C17.3252 24.4507 17.6002 24.568 17.8569 24.7C18.1209 24.8247 18.3335 24.9897 18.4949 25.195C18.6562 25.4003 18.7369 25.6753 18.7369 26.02C18.7369 26.372 18.6122 26.6617 18.3629 26.889C18.1135 27.1163 17.7835 27.23 17.3729 27.23C17.0649 27.23 16.7899 27.164 16.5479 27.032C16.3059 26.9 16.0859 26.7167 15.8879 26.482C15.6972 26.2473 15.5139 25.976 15.3379 25.668ZM23.8282 26.262L21.2982 20.3H20.2532L23.8282 28.385L27.4032 20.3H26.3582L23.8282 26.262ZM31.7538 24.975H34.3168C34.2508 25.2757 34.1445 25.558 33.9978 25.822C33.8585 26.086 33.6788 26.3207 33.4588 26.526C33.2388 26.7313 32.9748 26.8927 32.6668 27.01C32.3662 27.12 32.0252 27.175 31.6438 27.175C31.1012 27.175 30.6098 27.0467 30.1698 26.79C29.7298 26.5333 29.3778 26.1777 29.1138 25.723C28.8572 25.2683 28.7288 24.744 28.7288 24.15C28.7288 23.5487 28.8572 23.0243 29.1138 22.577C29.3778 22.1223 29.7298 21.7667 30.1698 21.51C30.6098 21.2533 31.1012 21.125 31.6438 21.125C32.2305 21.125 32.7402 21.2423 33.1728 21.477C33.6055 21.7043 33.9428 22.0233 34.1848 22.434L34.8448 21.829C34.6248 21.4697 34.3535 21.169 34.0308 20.927C33.7155 20.685 33.3562 20.5017 32.9528 20.377C32.5568 20.2523 32.1205 20.19 31.6438 20.19C31.0865 20.19 30.5695 20.289 30.0928 20.487C29.6162 20.6777 29.2018 20.9527 28.8498 21.312C28.4978 21.664 28.2228 22.082 28.0248 22.566C27.8342 23.05 27.7388 23.578 27.7388 24.15C27.7388 24.722 27.8342 25.25 28.0248 25.734C28.2228 26.218 28.4978 26.6397 28.8498 26.999C29.2018 27.351 29.6162 27.626 30.0928 27.824C30.5695 28.0147 31.0865 28.11 31.6438 28.11C32.2305 28.11 32.7512 28.0037 33.2058 27.791C33.6678 27.571 34.0565 27.274 34.3718 26.9C34.6872 26.526 34.9255 26.1007 35.0868 25.624C35.2482 25.14 35.3288 24.6303 35.3288 24.095H31.7538V24.975Z" fill="white"/>
<defs>
<linearGradient id="paint0_linear_70_3" x1="25" y1="0" x2="25" y2="50" gradientUnits="userSpaceOnUse">
<stop stop-color="#1B7340"/>
<stop offset="1" stop-color="#B9D79D"/>
</linearGradient>
</defs>
</svg>
